<svg version="1.0" xmlns="http://www.w3.org/2000/svg"
     width="481.000000pt" height="360.000000pt" viewBox="0 0 481.000000 360.000000"
     preserveAspectRatio="xMidYMid meet">

    <g>
        <circle cx="266" cy="180" r="200" fill="aliceblue"></circle>
    </g>
    <g transform="translate(0.000000,360.000000) scale(0.100000,-0.100000)"
       fill="#000000" stroke="#000000" stroke-width="40">
        <path d="M1832 3114 c-92 -16 -185 -47 -282 -92 -204 -95 -335 -231 -396 -412
-24 -71 -25 -290 -2 -362 16 -46 15 -47 -12 -73 -28 -27 -50 -83 -50 -130 0
-42 29 -93 84 -149 28 -28 62 -65 76 -82 39 -49 129 -106 231 -148 l95 -38 -1
-101 c0 -88 3 -108 24 -147 51 -98 177 -219 250 -241 32 -10 44 -9 76 7 48 23
117 91 157 155 16 27 31 49 33 49 2 0 16 -5 32 -11 45 -18 258 -37 543 -49
357 -15 454 -30 521 -81 l24 -18 -40 -17 c-23 -9 -71 -48 -110 -88 -57 -59
-87 -103 -159 -237 -105 -193 -111 -223 -54 -253 34 -19 42 -19 112 -7 42 7
120 16 174 20 104 9 158 26 237 76 48 31 111 92 133 131 10 17 15 15 54 -31
24 -27 55 -62 71 -78 41 -42 200 -114 292 -133 44 -9 96 -24 115 -34 58 -29
94 -33 117 -13 30 26 43 76 43 162 0 193 -107 372 -315 528 -55 41 -120 93
-144 116 l-43 41 8 80 c5 45 9 140 8 211 -1 199 -43 342 -148 515 -91 148
-250 311 -396 406 -25 16 -47 31 -50 34 -3 3 -16 11 -29 18 -13 8 -38 22 -55
31 -32 19 -135 78 -164 96 -63 38 -115 75 -171 119 -170 134 -323 203 -524
236 -85 14 -276 11 -365 -6z m371 -25 c181 -24 351 -102 506 -232 30 -25 125
-87 210 -138 205 -121 277 -168 353 -230 168 -137 295 -306 378 -504 13 -31
36 -123 50 -201 12 -67 9 -244 -6 -364 -5 -40 -2 -49 26 -82 17 -20 72 -68
123 -107 123 -93 193 -162 250 -247 26 -40 47 -76 47 -80 0 -5 6 -21 14 -35
19 -37 28 -92 28 -181 0 -109 -8 -138 -37 -138 -12 0 -44 12 -71 27 -26 15
-75 32 -108 39 -214 44 -315 111 -382 253 l-28 59 -29 -58 c-59 -121 -189
-211 -329 -230 -283 -36 -299 -37 -321 -12 -16 18 -16 21 8 63 13 24 49 91 78
149 87 170 160 264 241 311 61 35 73 36 103 7 13 -12 23 -17 23 -12 0 17 -73
81 -115 102 -98 49 -203 63 -617 82 -235 11 -352 28 -485 70 -138 44 -270 115
-345 188 -44 42 -47 51 -14 45 13 -3 50 1 82 8 l59 14 -150 6 c-139 6 -156 9
-230 39 -97 40 -201 107 -255 166 -55 60 -54 84 10 123 28 17 51 21 118 21 45
0 108 -7 140 -15 187 -48 282 -54 393 -27 87 22 144 49 182 87 42 42 32 51
-13 12 -23 -19 -69 -45 -103 -58 -53 -20 -79 -24 -187 -23 -72 0 -141 6 -162
13 -20 6 -85 21 -145 31 -100 17 -113 18 -175 4 -65 -15 -103 -42 -121 -86 -4
-9 -18 0 -41 26 -28 30 -36 48 -36 77 0 60 38 120 116 180 30 23 54 46 54 51
0 6 -7 5 -15 -2 -13 -11 -18 -10 -32 9 -8 13 -30 29 -48 37 -29 12 -33 19 -39
63 -9 67 17 208 51 279 45 92 90 148 176 217 221 177 502 247 820 204z m-986
-804 c8 -23 -4 -30 -22 -12 -19 20 -19 27 0 27 9 0 18 -7 22 -15z m498 -686
c78 -80 256 -190 334 -205 42 -9 40 -30 -13 -101 -48 -66 -125 -123 -166 -123
-53 0 -204 133 -244 213 -21 44 -26 68 -26 130 0 42 5 88 12 102 18 39 56 33
103 -16z"/>
        <path stroke-width="1" d="M2063 2508 c-41 -11 -63 -42 -63 -90 0 -67 58 -102 124 -74 42 17 60
54 51 102 -10 54 -53 78 -112 62z m67 -59 c0 -12 -6 -16 -20 -12 -25 7 -34 19
-26 39 5 12 9 12 26 2 11 -7 20 -20 20 -29z"/>
        <path d="M2610 2034 c8 -2 67 -10 131 -18 174 -22 287 -62 419 -147 107 -70
200 -169 200 -214 0 -9 -17 -23 -37 -31 -21 -9 -74 -33 -118 -54 -129 -61
-164 -70 -284 -70 -129 0 -212 22 -279 75 -46 36 -101 102 -102 122 0 20 -107
123 -127 123 -17 -1 -16 -2 2 -12 33 -18 79 -72 104 -124 71 -142 206 -215
399 -214 105 1 182 19 282 67 47 23 106 50 133 61 43 19 47 24 47 57 0 81
-111 191 -283 280 -99 51 -200 81 -322 95 -83 9 -199 12 -165 4z"/>
    </g>
</svg>
